<svg xmlns="http://www.w3.org/2000/svg" width="24" height="24" viewBox="0 0 24 24"><path fill="currentColor" d="M4.93 17.5c.18.53.43 1.03.72 1.5H4c-1.07 0-2-.89-2-1.99V9.55A2.5 2.5 0 0 1 4.43 7h3l.9-1.78A2.4 2.4 0 0 1 10.42 4h3.18c.85 0 1.63.46 2.1 1.26L16.56 7h3c1.4 0 2.44.86 2.44 2.25v7.76A2 2 0 0 1 20 19h-1.65c.3-.47.54-.97.72-1.5H20c.23 0 .5-.2.5-.49V9.25c0-.49-.32-.75-.93-.75H16.1a.75.75 0 0 1-.67-.41l-1.06-2.12a.91.91 0 0 0-.78-.47h-3.18a.9.9 0 0 0-.76.43L8.57 8.1a.75.75 0 0 1-.67.41H4.43c-.5 0-.93.46-.93 1.05v7.46c0 .25.25.49.5.49h.93zm7.07 2a4.5 4.5 0 1 0 0-9 4.5 4.5 0 0 0 0 9zm0 1.5a6 6 0 1 1 0-12 6 6 0 0 1 0 12z"></path></svg>